<svg id="图层_1" data-name="图层 1" xmlns="http://www.w3.org/2000/svg" viewBox="0 0 590.8 120.69"><defs><style>.cls-1{fill:#231815;}</style></defs><title>画板 1</title><path class="cls-1" d="M74.76,113.92Q42,116,9.19,118.64V6.13q32.24,3.51,64.56,6.25V31.31c-18.16-1-27.24-1.6-45.39-2.85V52.24c16.94.51,25.42.74,42.37,1.17V72l-42.37.1V98.31c18.56-.83,27.84-1.22,46.4-1.91Z"/><path class="cls-1" d="M165.05,18.53q-16,46-31.28,92.17c-8.67.41-13,.62-21.68,1.07C101.26,79,90.91,46,80.81,13c8.07.66,12.11,1,20.18,1.57q9.66,34.35,19.67,68.61c1,3.17,1.84,6.32,2.52,9.47h.51q1-3.92,2.52-10Q135.36,50,144.87,17.44C152.94,17.9,157,18.12,165.05,18.53Z"/><path class="cls-1" d="M239.19,107.4q-32.79.54-65.57,1.69V18.94q32.26,1.51,64.56,2.24V37.25c-18.16-.27-27.24-.46-45.39-1V55.65c16.94.2,25.42.28,42.36.4v15.7l-42.36,0V93.15c18.56-.33,27.84-.45,46.4-.64Z"/><path class="cls-1" d="M325.44,107c-9.68-.08-14.53-.1-24.21-.11L281.05,74.06H270v33c-7.47.06-11.2.1-18.67.19V21.44c15.34.27,23,.35,38.34.4,20.17.58,31.09,9.25,31.77,25.48.6,14.19-6.55,23-20.67,25.57C310.61,86.51,315.55,93.3,325.44,107ZM286.1,36.91c-6.46,0-9.69,0-16.14-.08V59.32c6.45,0,9.68,0,16.14,0,10.42,0,15.15-3.91,15.13-10.82C301.21,40.88,296.52,36.69,286.1,36.91Z"/><path class="cls-1" d="M408.16,108.64c-7.67-.24-11.5-.35-19.17-.55V73c-14.52,0-21.79,0-36.31,0v34.43c-7.47-.12-11.2-.17-18.67-.24V21.6c7.47-.1,11.2-.17,18.67-.32V56.1C367.2,56,374.47,56,389,55.8V20.28c7.67-.27,11.5-.41,19.17-.73Z"/><path class="cls-1" d="M503.49,64.27c.12,25.68-15,48.7-41.87,48.14-25.1-.52-40.68-24.14-41.36-47.57-.7-24.68,16.57-48.12,41.36-49.35C488.39,14.17,503.37,38.74,503.49,64.27Zm-21.19.17c0-20.08-8.09-31.37-20.68-30.59-13,.81-21.69,12.64-21.69,30.88,0,18,8.69,29.56,21.69,30.18C474.22,95.51,482.3,84.25,482.3,64.44Z"/><path class="cls-1" d="M586.21,27.1c-10.7.78-16,1.16-26.74,1.87v87.6c-7.86-.58-11.8-.86-19.67-1.39V30.24c-10.69.66-16,1-26.73,1.55V13.09q36.61-3.12,73.14-7Z"/></svg>